<svg fill="#30b900" viewBox="0 0 50 50" xmlns="http://www.w3.org/2000/svg" xmlns:xlink="http://www.w3.org/1999/xlink" stroke="#30b900"><g id="SVGRepo_bgCarrier" stroke-width="0"></g><g id="SVGRepo_tracerCarrier" stroke-linecap="round" stroke-linejoin="round"></g><g id="SVGRepo_iconCarrier"><path d="M46.4375 -0.03125C46.269531 -0.0390625 46.097656 -0.0234375 45.9375 0C45.265625 0.09375 44.6875 0.421875 44.28125 1.03125L44.25 1.09375L44.21875 1.125L35.65625 17.21875C34.691406 16.859375 33.667969 16.671875 32.625 16.671875C28.976563 16.671875 26.015625 19.632813 26.015625 23.28125C26.015625 26.929688 28.976563 29.890625 32.625 29.890625C36.273438 29.890625 39.234375 26.929688 39.234375 23.28125C39.234375 22.238281 39.046875 21.214844 38.6875 20.25L47.28125 4.125C47.464844 3.828125 47.589844 3.496094 47.65625 3.15625C47.722656 2.816406 47.734375 2.472656 47.6875 2.125C47.59375 1.4375 47.25 0.828125 46.71875 0.40625C46.359375 0.113281 45.925781 -0.0390625 45.46875 -0.03125C45.457031 -0.0273438 45.449219 -0.0273438 45.4375 -0.03125C45.4375 -0.0273438 45.4375 -0.0273438 45.4375 -0.03125ZM37.03125 25.109375C37.03125 27.515625 35.03125 29.484375 32.65625 29.484375C30.28125 29.484375 28.28125 27.515625 28.28125 25.109375C28.28125 22.703125 30.28125 20.734375 32.65625 20.734375C35.03125 20.734375 37.03125 22.703125 37.03125 25.109375ZM3.5 10.015625C1.574219 10.015625 0 11.589844 0 13.515625L0 46.484375C0 48.410156 1.574219 49.984375 3.5 49.984375L46.5 49.984375C48.425781 49.984375 50 48.410156 50 46.484375L50 13.515625C50 11.589844 48.425781 10.015625 46.5 10.015625ZM3.5 12.015625L46.5 12.015625C47.34375 12.015625 48 12.671875 48 13.515625L48 46.484375C48 47.328125 47.34375 47.984375 46.5 47.984375L3.5 47.984375C2.65625 47.984375 2 47.328125 2 46.484375L2 13.515625C2 12.671875 2.65625 12.015625 3.5 12.015625ZM14.71875 18.4375C14.246094 18.4375 13.785156 18.59375 13.40625 18.875L13.375 18.90625L8.625 22.5C8.15625 22.84375 7.84375 23.390625 7.84375 23.96875C7.84375 24.546875 8.15625 25.09375 8.625 25.4375L13.375 29.0625C13.785156 29.375 14.246094 29.53125 14.71875 29.53125C15.203125 29.53125 15.671875 29.375 16.09375 29.0625C16.5 28.75 16.796875 28.3125 16.96875 27.8125C17.140625 27.3125 17.140625 26.78125 16.96875 26.28125C16.796875 25.78125 16.5 25.34375 16.09375 25.03125L13.46875 23.21875L16.09375 21.40625C16.5 21.09375 16.796875 20.65625 16.96875 20.15625C17.140625 19.65625 17.140625 19.125 16.96875 18.625C16.796875 18.125 16.5 17.6875 16.09375 17.375C15.671875 17.0625 15.203125 16.90625 14.71875 16.90625C14.71875 16.90625 14.71875 18.4375 14.71875 18.4375ZM35.28125 18.4375C34.796875 18.4375 34.328125 18.59375 33.90625 18.90625C33.5 19.21875 33.203125 19.65625 33.03125 20.15625C32.859375 20.65625 32.859375 21.1875 33.03125 21.6875C33.203125 22.1875 33.5 22.625 33.90625 22.9375L36.53125 24.75L33.90625 26.5625C33.5 26.875 33.203125 27.3125 33.03125 27.8125C32.859375 28.3125 32.859375 28.84375 33.03125 29.34375C33.203125 29.84375 33.5 30.28125 33.90625 30.59375C34.328125 30.90625 34.796875 31.0625 35.28125 31.0625C35.753906 31.0625 36.214844 30.90625 36.59375 30.59375L36.625 30.5625L41.375 26.96875C41.84375 26.625 42.15625 26.078125 42.15625 25.5C42.15625 24.921875 41.84375 24.375 41.375 24.03125L36.625 20.4375C36.214844 20.125 35.753906 19.96875 35.28125 19.96875C35.28125 19.96875 35.28125 18.4375 35.28125 18.4375ZM18.8125 19.90625C18.390625 19.90625 17.984375 20.0625 17.65625 20.34375C17.328125 20.625 17.109375 21.015625 17.03125 21.4375L14.65625 35.25C14.53125 35.96875 14.65625 36.703125 15.03125 37.34375C15.40625 37.984375 15.984375 38.484375 16.6875 38.78125C17.390625 39.078125 18.171875 39.15625 18.9375 38.96875C19.703125 38.78125 20.390625 38.34375 20.875 37.71875L20.90625 37.6875L28.03125 27.84375C28.421875 27.34375 28.65625 26.734375 28.65625 26.09375C28.65625 25.453125 28.421875 24.84375 28.03125 24.34375L20.90625 14.5C20.421875 13.875 19.734375 13.4375 18.96875 13.25C18.203125 13.0625 17.421875 13.140625 16.71875 13.4375C16.015625 13.734375 15.4375 14.234375 15.0625 14.875C14.6875 15.515625 14.5625 16.25 14.6875 16.96875L17.0625 30.78125L18.8125 19.90625ZM31.09375 29.96875C30.671875 29.96875 30.265625 30.125 29.9375 30.40625C29.609375 30.6875 29.390625 31.078125 29.3125 31.5L26.9375 45.3125C26.8125 46.03125 26.9375 46.765625 27.3125 47.40625C27.6875 48.046875 28.265625 48.546875 28.96875 48.84375C29.671875 49.140625 30.453125 49.21875 31.21875 49.03125C31.984375 48.84375 32.671875 48.40625 33.15625 47.78125L33.1875 47.75L40.3125 37.90625C40.703125 37.40625 40.9375 36.796875 40.9375 36.15625C40.9375 35.515625 40.703125 34.90625 40.3125 34.40625L33.1875 24.5625C32.703125 23.9375 32.015625 23.5 31.25 23.3125C30.484375 23.125 29.703125 23.203125 29 23.5C28.296875 23.796875 27.71875 24.296875 27.34375 24.9375C26.96875 25.578125 26.84375 26.3125 26.96875 27.03125L29.34375 40.84375L31.09375 29.96875Z"></path></g></svg>